<svg width="13" height="20" viewBox="0 0 13 20" fill="none" xmlns="http://www.w3.org/2000/svg">
<path d="M12.097 4.06424C10.9497 2.13155 8.91171 0.950789 6.64544 0.905665C6.5487 0.903719 6.45133 0.903719 6.35455 0.905665C4.08831 0.950789 2.05035 2.13155 0.902942 4.06424C-0.26987 6.03975 -0.301957 8.41272 0.817091 10.412L5.5052 18.7876C5.5073 18.7913 5.50941 18.795 5.51159 18.7987C5.71785 19.1486 6.08736 19.3575 6.50007 19.3575C6.91274 19.3575 7.28225 19.1486 7.48848 18.7987C7.49065 18.795 7.49276 18.7913 7.49486 18.7876L12.183 10.412C13.3019 8.41272 13.2699 6.03975 12.097 4.06424V4.06424ZM6.49999 9.26586C5.03404 9.26586 3.8414 8.10175 3.8414 6.67087C3.8414 5.23998 5.03404 4.07588 6.49999 4.07588C7.96595 4.07588 9.15859 5.23998 9.15859 6.67087C9.15859 8.10175 7.96599 9.26586 6.49999 9.26586Z" fill="black"/>
</svg>
