<svg width="22" height="19" viewBox="0 0 22 19" fill="none" xmlns="http://www.w3.org/2000/svg">
<path d="M21.5722 14.7388L19.1333 13.3748L16.9652 12.1627C16.5467 11.9291 15.9844 12.0057 15.6755 12.3383L14.3339 13.7849C14.0457 14.0989 13.5273 14.1891 13.114 13.9972C12.2037 13.5724 11.1272 13.1725 8.75202 11.1777C6.37682 9.18281 5.89699 8.28243 5.39061 7.51886C5.16181 7.17221 5.26935 6.73738 5.64361 6.49569L7.36831 5.37037C7.76478 5.11131 7.85609 4.63964 7.5777 4.28863L6.17693 2.52604L4.50645 0.424257C4.22213 0.0665117 3.65297 -0.0408912 3.21341 0.180222L1.28688 1.14966C0.766233 1.40696 0.383514 1.82244 0.218 2.30997C-0.308834 3.92112 -0.415052 7.47525 6.37566 13.1712C13.1664 18.8672 17.4032 18.7778 19.324 18.3358C19.9053 18.197 20.4006 17.876 20.7074 17.4393L21.8631 15.8234C22.1268 15.4546 21.9987 14.9773 21.5722 14.7388Z" fill="#0A0A0A"/>
<path d="M12.517 2.92876C16.0766 2.93207 18.9613 5.35166 18.9652 8.33742C18.9652 8.51313 19.1351 8.6556 19.3446 8.6556C19.554 8.6556 19.7239 8.51316 19.7239 8.33742C19.7195 5.00041 16.4955 2.29613 12.5171 2.29245C12.3076 2.29245 12.1378 2.43488 12.1378 2.61062C12.1377 2.78629 12.3075 2.92876 12.517 2.92876Z" fill="#0A0A0A"/>
<path d="M12.5171 4.8377C14.8203 4.83997 16.6867 6.40553 16.6894 8.33741C16.6894 8.51311 16.8592 8.65558 17.0688 8.65558C17.2782 8.65558 17.4481 8.51314 17.4481 8.33741C17.4449 6.05423 15.2391 4.20399 12.5171 4.20135C12.3076 4.20135 12.1378 4.34379 12.1378 4.51953C12.1378 4.69526 12.3076 4.8377 12.5171 4.8377Z" fill="#0A0A0A"/>
<path d="M12.517 6.74666C13.564 6.7477 14.4123 7.4593 14.4136 8.33745C14.4136 8.51315 14.5834 8.65562 14.7929 8.65562C15.0024 8.65562 15.1722 8.51318 15.1722 8.33745C15.1705 7.10804 13.9828 6.11176 12.5171 6.11035C12.3076 6.11035 12.1378 6.25279 12.1378 6.42852C12.1377 6.60422 12.3075 6.74666 12.517 6.74666Z" fill="#0A0A0A"/>
</svg>
