<svg width="29" height="29" viewBox="0 0 29 29" fill="none" xmlns="http://www.w3.org/2000/svg">
<path d="M14.5 0C6.49218 0 0 6.49218 0 14.5C0 22.5078 6.49218 29 14.5 29C22.5078 29 29 22.5108 29 14.5C29 6.48917 22.5063 0 14.5 0ZM20.4048 14.5195C19.9482 14.85 19.427 15.0798 18.8757 15.194L18.7856 15.212V19.1295H15.9225V15.0092L15.4779 14.9041C14.9401 14.7794 14.3843 14.6517 13.8901 14.6217C13.7805 14.6172 13.6708 14.6187 13.5612 14.6277L13.456 14.6367V22.2224H10.5975V15.5875L9.71424 16.2154L8.06189 13.8781L8.98119 13.2217C9.43785 12.8912 9.95909 12.6614 10.5104 12.5472L10.6005 12.5292V7.58721H13.4635V11.7691L13.5807 11.7646C13.6468 11.7616 13.7144 11.7616 13.7805 11.7616C13.8781 11.7601 13.9757 11.7646 14.0734 11.7751H14.0824C14.6577 11.8097 15.23 11.8968 15.7903 12.035L15.9255 12.0681V7.55867H18.7886V12.1537L19.6718 11.5258L21.3271 13.8616L20.4048 14.5195Z" fill="white"/>
</svg>
