<svg width="50" height="51" viewBox="0 0 50 51" fill="none" xmlns="http://www.w3.org/2000/svg">
<circle cx="25" cy="25.4844" r="25" fill="#FAAD01"/>
<path d="M28.7915 34.1656L21.3785 25.9835L28.7915 17.8015C28.9242 17.6553 28.9985 17.4591 28.9985 17.2547C28.9985 17.0504 28.9242 16.8541 28.7915 16.7079C28.727 16.6372 28.6501 16.5809 28.5652 16.5425C28.4802 16.5041 28.3891 16.4844 28.297 16.4844C28.2049 16.4844 28.1137 16.5041 28.0288 16.5425C27.9439 16.5809 27.8669 16.6372 27.8025 16.7079L19.9148 25.4122C19.7763 25.5651 19.6988 25.7701 19.6988 25.9835C19.6988 26.197 19.7763 26.402 19.9148 26.5549L27.8009 35.2591C27.8655 35.3304 27.9426 35.3871 28.0278 35.4258C28.113 35.4645 28.2045 35.4844 28.297 35.4844C28.3894 35.4844 28.481 35.4645 28.5662 35.4258C28.6514 35.3871 28.7285 35.3304 28.793 35.2591C28.9257 35.113 29 34.9167 29 34.7124C29 34.508 28.9257 34.3118 28.793 34.1656L28.7915 34.1656Z" fill="white"/>
</svg>
