<svg width="151" height="151" viewBox="0 0 151 151" fill="none" xmlns="http://www.w3.org/2000/svg">
<g clip-path="url(#clip0_161_534)">
<path d="M119.908 26.6702C110.804 10.96 94.6349 1.36206 76.654 0.995264C75.8864 0.979443 75.1138 0.979443 74.346 0.995264C56.3653 1.36206 40.1958 10.96 31.0921 26.6702C21.7868 42.7284 21.5322 62.0174 30.4109 78.2687L67.6071 146.351C67.6238 146.381 67.6405 146.411 67.6578 146.441C69.2943 149.286 72.2261 150.984 75.5006 150.984C78.7748 150.984 81.7065 149.285 83.3427 146.441C83.36 146.411 83.3767 146.381 83.3934 146.351L120.59 78.2687C129.468 62.0174 129.213 42.7284 119.908 26.6702V26.6702ZM75.5 68.9523C63.8688 68.9523 54.4062 59.4897 54.4062 47.8586C54.4062 36.2274 63.8688 26.7648 75.5 26.7648C87.1311 26.7648 96.5937 36.2274 96.5937 47.8586C96.5937 59.4897 87.1314 68.9523 75.5 68.9523Z" fill="#FAAD01"/>
</g>
<defs>
<clipPath id="clip0_161_534">
<rect width="150" height="150" fill="white" transform="translate(0.5 0.984375)"/>
</clipPath>
</defs>
</svg>
