<svg width="151" height="151" viewBox="0 0 151 151" fill="none" xmlns="http://www.w3.org/2000/svg">
<g clip-path="url(#clip0_161_564)">
<path d="M99.9312 76.2533L150.5 108.222V42.9346L99.9312 76.2533Z" fill="#FAAD01"/>
<path d="M0.5 42.9346V108.222L51.0688 76.2533L0.5 42.9346Z" fill="#FAAD01"/>
<path d="M141.125 23.9219H9.875C5.19688 23.9219 1.48438 27.4094 0.78125 31.9L75.5 81.1281L150.219 31.9C149.516 27.4094 145.803 23.9219 141.125 23.9219Z" fill="#FAAD01"/>
<path d="M91.3437 81.9156L78.0781 90.6531C77.2906 91.1687 76.4 91.4219 75.5 91.4219C74.6 91.4219 73.7094 91.1687 72.9219 90.6531L59.6562 81.9062L0.799988 119.134C1.52186 123.587 5.21561 127.047 9.87499 127.047H141.125C145.784 127.047 149.478 123.587 150.2 119.134L91.3437 81.9156Z" fill="#FAAD01"/>
</g>
<defs>
<clipPath id="clip0_161_564">
<rect width="150" height="150" fill="white" transform="translate(0.5 0.484375)"/>
</clipPath>
</defs>
</svg>
