<svg width="50" height="51" viewBox="0 0 50 51" fill="none" xmlns="http://www.w3.org/2000/svg">
<circle cx="25" cy="25.4844" r="25" fill="#FAAD01"/>
<path d="M20.2085 17.8032L27.6215 25.9852L20.2085 34.1672C20.0758 34.3134 20.0015 34.5097 20.0015 34.714C20.0015 34.9184 20.0758 35.1146 20.2085 35.2608C20.273 35.3316 20.3499 35.3878 20.4348 35.4262C20.5198 35.4646 20.6109 35.4844 20.703 35.4844C20.7951 35.4844 20.8863 35.4646 20.9712 35.4262C21.0561 35.3878 21.1331 35.3316 21.1975 35.2608L29.0852 26.5565C29.2237 26.4037 29.3012 26.1987 29.3012 25.9852C29.3012 25.7718 29.2237 25.5667 29.0852 25.4139L21.1991 16.7096C21.1345 16.6383 21.0574 16.5817 20.9722 16.543C20.887 16.5043 20.7955 16.4844 20.703 16.4844C20.6106 16.4844 20.519 16.5043 20.4338 16.543C20.3486 16.5817 20.2715 16.6383 20.207 16.7096C20.0743 16.8558 20 17.052 20 17.2564C20 17.4607 20.0743 17.657 20.207 17.8032L20.2085 17.8032Z" fill="white"/>
</svg>
