<svg width="30" height="30" viewBox="0 0 30 30" fill="none" xmlns="http://www.w3.org/2000/svg">
<rect width="30" height="30" rx="6" fill="#FAAD01"/>
<path d="M23.7247 16.7977V22.9819H20.1392V17.2121C20.1392 15.7634 19.6216 14.7741 18.3234 14.7741C17.3327 14.7741 16.7442 15.4401 16.4843 16.0851C16.3899 16.3156 16.3656 16.6356 16.3656 16.9589V22.9816H12.7799C12.7799 22.9816 12.828 13.2096 12.7799 12.198H16.3658V13.7262C16.3586 13.7382 16.3485 13.75 16.342 13.7615H16.3658V13.7262C16.8423 12.993 17.6921 11.9448 19.5972 11.9448C21.9561 11.9448 23.7247 13.4861 23.7247 16.7977ZM9.02895 7C7.80243 7 7 7.80511 7 8.8629C7 9.89823 7.77917 10.7266 8.98189 10.7266H9.00515C10.2557 10.7266 11.0333 9.89823 11.0333 8.8629C11.0095 7.80511 10.2557 7 9.02895 7ZM7.21311 22.9819H10.7975V12.198H7.21311V22.9819Z" fill="#F1F2F2"/>
</svg>
