<svg width="30" height="30" viewBox="0 0 30 30" fill="none" xmlns="http://www.w3.org/2000/svg">
<rect width="30" height="30" rx="6" fill="#FAAD01"/>
<path d="M11.2539 23.2062C18.8747 23.2062 23.0422 16.8925 23.0422 11.4178C23.0422 11.2384 23.0385 11.0601 23.0303 10.8825C23.8392 10.2975 24.5423 9.56778 25.0971 8.73717C24.3546 9.06699 23.5558 9.28923 22.7176 9.38925C23.5732 8.87656 24.2299 8.06494 24.5398 7.09746C23.7389 7.57216 22.8527 7.91708 21.909 8.10316C21.1528 7.29796 20.0761 6.79419 18.8848 6.79419C16.5964 6.79419 14.7409 8.64973 14.7409 10.937C14.7409 11.2622 14.7773 11.5783 14.8482 11.8818C11.4052 11.7085 8.35164 10.0596 6.30841 7.55293C5.95227 8.16519 5.74742 8.87656 5.74742 9.6353C5.74742 11.0727 6.47893 12.3418 7.59106 13.0841C6.91151 13.0633 6.27293 12.8763 5.71469 12.5657C5.71378 12.5831 5.71378 12.6005 5.71378 12.6185C5.71378 14.6254 7.142 16.3006 9.0376 16.6803C8.6897 16.775 8.32349 16.8261 7.94537 16.8261C7.6785 16.8261 7.41895 16.7995 7.16649 16.7515C7.69406 18.3974 9.22345 19.5953 11.0371 19.6292C9.61873 20.7404 7.83253 21.4026 5.89139 21.4026C5.55722 21.4026 5.2274 21.3836 4.90308 21.3451C6.73665 22.5202 8.91377 23.2062 11.2539 23.2062Z" fill="white"/>
</svg>
